<svg id="visual" viewBox="0 0 900 600" width="900" height="600" xmlns="http://www.w3.org/2000/svg" xmlns:xlink="http://www.w3.org/1999/xlink" version="1.1"><path d="M0 402L21.5 414.2C43 426.3 86 450.7 128.8 453.2C171.7 455.7 214.3 436.3 257.2 422.2C300 408 343 399 385.8 407.5C428.7 416 471.3 442 514.2 454.5C557 467 600 466 642.8 456.7C685.7 447.3 728.3 429.7 771.2 417.7C814 405.7 857 399.3 878.5 396.2L900 393L900 601L878.5 601C857 601 814 601 771.2 601C728.3 601 685.7 601 642.8 601C600 601 557 601 514.2 601C471.3 601 428.7 601 385.8 601C343 601 300 601 257.2 601C214.3 601 171.7 601 128.8 601C86 601 43 601 21.5 601L0 601Z" fill="#F2F1EB" stroke-linecap="round" stroke-linejoin="miter"></path></svg>